<svg width="24" height="25" viewBox="0 0 24 25" fill="none" xmlns="http://www.w3.org/2000/svg">
<path d="M12 14.167C11.2583 14.167 10.5333 13.9471 9.91661 13.535C9.29993 13.123 8.81928 12.5373 8.53545 11.8521C8.25162 11.1668 8.17736 10.4128 8.32206 9.68541C8.46675 8.95798 8.8239 8.28979 9.34835 7.76534C9.8728 7.2409 10.541 6.88374 11.2684 6.73905C11.9958 6.59435 12.7498 6.66862 13.4351 6.95245C14.1203 7.23627 14.706 7.71692 15.118 8.33361C15.5301 8.95029 15.75 9.67531 15.75 10.417C15.7488 11.4112 15.3533 12.3643 14.6503 13.0673C13.9473 13.7703 12.9942 14.1658 12 14.167ZM12 8.16699C11.555 8.16699 11.12 8.29895 10.75 8.54619C10.38 8.79342 10.0916 9.14482 9.92127 9.55596C9.75098 9.96709 9.70642 10.4195 9.79323 10.8559C9.88005 11.2924 10.0943 11.6933 10.409 12.008C10.7237 12.3227 11.1246 12.5369 11.561 12.6238C11.9975 12.7106 12.4499 12.666 12.861 12.4957C13.2722 12.3254 13.6236 12.037 13.8708 11.667C14.118 11.297 14.25 10.862 14.25 10.417C14.2494 9.82044 14.0122 9.24849 13.5903 8.82666C13.1685 8.40483 12.5966 8.16759 12 8.16699Z" fill="black"/>
<path d="M12 23.167L5.67301 15.7052C5.58509 15.5932 5.49809 15.4804 5.41201 15.367C4.33124 13.9433 3.74739 12.2044 3.75001 10.417C3.75001 8.22896 4.6192 6.13054 6.16638 4.58336C7.71355 3.03619 9.81197 2.16699 12 2.16699C14.188 2.16699 16.2865 3.03619 17.8336 4.58336C19.3808 6.13054 20.25 8.22896 20.25 10.417C20.2526 12.2036 19.669 13.9417 18.5888 15.3647L18.588 15.367C18.588 15.367 18.363 15.6625 18.3293 15.7022L12 23.167ZM6.60901 14.4632C6.61051 14.4632 6.78451 14.6942 6.82426 14.7437L12 20.848L17.1825 14.7355C17.2155 14.6942 17.391 14.4617 17.3918 14.461C18.2746 13.2978 18.7517 11.8773 18.75 10.417C18.75 8.62678 18.0389 6.90989 16.773 5.64402C15.5071 4.37815 13.7902 3.66699 12 3.66699C10.2098 3.66699 8.49291 4.37815 7.22704 5.64402C5.96117 6.90989 5.25001 8.62678 5.25001 10.417C5.24844 11.8782 5.72609 13.2996 6.60976 14.4632H6.60901Z" fill="black"/>
</svg>
