<svg width="24" height="25" viewBox="0 0 24 25" fill="none" xmlns="http://www.w3.org/2000/svg">
<path d="M19.4974 22.584H19.3699C4.63238 21.7365 2.53988 9.30148 2.24738 5.50648C2.22381 5.21142 2.25869 4.9146 2.35003 4.63304C2.44137 4.35148 2.58737 4.09071 2.77967 3.86567C2.97196 3.64063 3.20677 3.45575 3.47064 3.32161C3.7345 3.18748 4.02225 3.10673 4.31738 3.08399H8.44988C8.7503 3.08369 9.04388 3.17362 9.2926 3.34211C9.54132 3.5106 9.73372 3.74989 9.84488 4.02899L10.9849 6.83398C11.0946 7.10664 11.1219 7.40554 11.0632 7.69355C11.0045 7.98156 10.8626 8.24599 10.6549 8.45398L9.05738 10.0665C9.30691 11.4845 9.98601 12.7917 11.0028 13.8112C12.0196 14.8307 13.325 15.5132 14.7424 15.7665L16.3699 14.154C16.581 13.9486 16.8479 13.8099 17.1373 13.7552C17.4268 13.7006 17.7259 13.7323 17.9974 13.8465L20.8249 14.979C21.0998 15.0936 21.3343 15.2875 21.4986 15.536C21.6629 15.7844 21.7495 16.0761 21.7474 16.374V20.334C21.7474 20.9307 21.5103 21.503 21.0884 21.925C20.6664 22.3469 20.0941 22.584 19.4974 22.584ZM4.49738 4.58398C4.29847 4.58398 4.1077 4.663 3.96705 4.80366C3.8264 4.94431 3.74738 5.13507 3.74738 5.33399V5.39398C4.09238 9.83398 6.30488 20.334 19.4524 21.084C19.5509 21.0901 19.6497 21.0767 19.743 21.0445C19.8363 21.0123 19.9224 20.9621 19.9963 20.8966C20.0701 20.8311 20.1303 20.7516 20.1734 20.6628C20.2165 20.574 20.2416 20.4775 20.2474 20.379V16.374L17.4199 15.2415L15.2674 17.379L14.9074 17.334C8.38238 16.5165 7.49738 9.99149 7.49738 9.92399L7.45238 9.56398L9.58238 7.41149L8.45738 4.58398H4.49738Z" fill="black"/>
</svg>
